<svg xmlns="http://www.w3.org/2000/svg" width="1344" height="768" viewBox="0 0 1344 768">
<g>
<path d="M 0.00 0.00 L 1344.00 0.00 L 1344.00 768.00 L 0.00 768.00 ZM 165.50 633.58 C175.40,635.86 189.79,634.91 200.26,631.27 C212.05,627.18 218.98,622.87 227.43,614.40 C238.41,603.37 243.31,593.35 248.86,570.50 C250.46,563.90 256.27,540.50 261.78,518.50 C267.28,496.50 272.82,473.84 274.08,468.14 C275.34,462.44 276.85,457.26 277.44,456.64 C278.03,456.01 289.27,443.42 302.42,428.66 C315.57,413.90 327.41,401.42 328.72,400.92 C330.04,400.42 342.45,399.10 356.31,398.00 C370.16,396.90 383.71,395.70 386.41,395.35 L 391.33 394.70 L 390.69 413.60 C390.31,424.70 390.46,435.39 391.05,439.50 C393.80,458.63 407.45,473.18 426.65,477.45 C438.87,480.17 463.37,484.00 468.50,483.99 C487.70,483.95 501.78,469.35 508.51,442.47 C511.38,431.01 511.55,428.08 513.05,363.50 C514.16,315.94 514.92,305.95 518.11,297.44 C521.71,287.82 522.48,287.23 540.50,280.51 C553.02,275.84 594.20,260.70 601.72,257.99 C606.92,256.12 609.42,255.82 616.95,256.18 C621.90,256.42 626.11,256.81 626.32,257.06 C626.52,257.30 626.33,272.35 625.91,290.50 C623.55,390.56 621.56,507.02 621.53,546.50 L 621.50 591.50 L 624.76 598.15 C628.85,606.52 636.51,613.75 644.63,616.92 C653.17,620.25 663.07,620.46 699.00,618.10 C716.33,616.96 737.47,615.56 746.00,615.00 C790.85,612.04 799.52,609.54 813.37,595.58 C821.70,587.19 825.09,582.01 833.56,564.76 C844.45,542.59 848.17,535.78 853.10,529.00 C863.93,514.10 881.82,505.90 904.06,505.63 L 914.62 505.50 L 934.56 515.38 C976.88,536.35 999.94,544.14 1031.00,547.94 C1045.16,549.67 1209.44,556.46 1221.03,555.79 C1235.63,554.95 1249.37,545.75 1256.63,531.95 C1259.24,527.00 1259.50,525.58 1259.49,516.50 C1259.49,507.31 1259.24,506.05 1256.51,501.00 C1250.55,489.99 1243.78,484.78 1217.92,471.28 C1198.76,461.29 1167.55,447.00 1164.88,447.00 C1163.78,447.00 1145.98,438.30 1131.50,430.69 C1123.80,426.64 1107.38,418.03 1095.00,411.56 C1082.62,405.08 1064.62,395.62 1055.00,390.53 C1045.38,385.44 1026.47,375.52 1013.00,368.48 C991.52,357.26 953.67,337.26 906.00,311.97 C898.03,307.73 879.12,297.73 864.00,289.75 C848.88,281.76 827.50,270.45 816.50,264.62 C805.50,258.78 790.16,251.31 782.41,248.01 C747.43,233.12 732.19,225.45 625.00,168.79 C613.72,162.83 600.67,156.07 596.00,153.77 C581.42,146.58 569.56,147.64 562.02,156.80 C558.18,161.45 556.99,166.29 556.30,180.00 L 555.70 191.92 L 551.60 192.46 C549.34,192.76 541.20,193.69 533.50,194.52 C505.02,197.59 488.75,200.48 470.50,205.69 C445.87,212.71 415.19,228.38 392.75,245.38 C384.18,251.87 353.95,279.43 300.49,329.50 C291.68,337.75 277.95,350.56 269.99,357.97 C227.60,397.38 209.29,418.19 184.14,455.50 C134.83,528.67 119.46,551.94 117.19,556.88 C112.03,568.11 113.34,587.36 120.20,601.09 C123.76,608.21 133.96,619.48 140.83,623.89 C146.37,627.44 157.03,631.63 165.50,633.58 ZM 196.83 627.13 C172.32,634.76 141.84,624.49 128.16,604.00 C122.00,594.77 119.56,586.43 119.53,574.50 C119.49,561.46 120.09,560.22 142.46,526.84 C198.39,443.37 204.91,434.15 222.99,413.00 C238.45,394.92 248.99,384.46 291.03,345.50 C309.43,328.45 331.01,308.38 338.99,300.91 C392.22,251.04 400.68,244.23 427.50,229.63 C451.21,216.73 473.38,208.80 497.50,204.60 C512.66,201.97 545.66,198.00 552.43,198.00 C552.93,198.00 553.41,198.00 553.86,198.00 C557.30,198.02 559.29,198.03 560.45,197.05 C562.02,195.71 562.02,192.51 562.02,184.93 C562.02,184.21 562.02,183.45 562.02,182.64 C562.04,171.04 562.38,167.78 563.89,164.50 C566.33,159.22 569.55,156.43 574.82,155.03 C582.30,153.05 587.42,154.92 616.01,170.13 C700.76,215.22 737.02,233.83 759.00,243.51 C768.62,247.75 781.45,253.44 787.50,256.15 C797.15,260.47 823.20,274.01 869.00,298.52 C876.42,302.50 894.42,312.04 909.00,319.74 C1001.12,368.38 1015.30,375.85 1060.00,399.25 C1077.32,408.32 1101.40,420.92 1113.50,427.26 C1148.33,445.50 1156.96,449.62 1172.71,455.52 C1187.11,460.92 1231.36,483.14 1239.00,488.81 C1248.72,496.02 1255.00,506.85 1255.00,516.40 C1255.00,530.56 1242.91,544.98 1227.19,549.55 C1220.94,551.36 1213.97,551.21 1110.50,547.02 C1030.71,543.78 1028.94,543.64 1007.50,538.48 C985.50,533.20 967.24,526.10 940.46,512.40 C917.47,500.65 913.75,499.54 900.02,500.33 C880.29,501.48 866.58,507.32 853.95,519.95 C846.79,527.11 845.79,528.70 834.64,550.77 C821.44,576.89 815.53,586.40 808.37,593.07 C798.69,602.10 788.86,606.03 771.17,607.96 C754.04,609.82 683.98,614.15 668.00,614.33 C652.59,614.50 652.46,614.48 646.00,611.41 C637.01,607.14 633.59,603.94 629.83,596.32 C627.10,590.75 626.54,588.37 626.16,580.63 C625.66,570.21 628.39,416.82 631.13,302.19 C632.01,265.02 632.01,253.61 631.10,252.70 C630.37,251.97 625.50,251.37 618.53,251.15 C608.25,250.82 606.33,251.06 598.82,253.53 C587.08,257.39 527.15,279.70 523.34,281.62 C519.47,283.58 514.77,289.96 512.70,296.05 C509.21,306.36 509.13,307.78 506.44,408.50 C505.75,434.25 504.12,443.69 498.13,456.47 C491.31,471.02 481.75,478.22 469.00,478.41 C456.81,478.58 425.07,472.68 417.27,468.78 C411.18,465.74 404.50,459.73 401.57,454.65 C396.44,445.78 395.83,441.47 395.95,414.75 L 396.05 390.00 L 392.27 390.01 C390.20,390.01 379.05,390.88 367.50,391.94 C355.95,393.00 342.32,394.18 337.20,394.57 C325.77,395.43 323.20,396.94 312.86,409.00 C308.85,413.67 299.70,423.97 292.53,431.87 C272.25,454.22 272.29,454.18 270.67,460.06 C269.86,463.05 267.51,472.70 265.46,481.50 C263.42,490.30 259.80,505.15 257.43,514.50 C243.69,568.75 239.98,582.95 238.55,586.95 C231.85,605.58 215.52,621.31 196.83,627.13 ZM 163.00 618.63 C181.63,624.25 202.03,619.39 216.45,605.90 C226.80,596.22 229.08,590.44 240.90,544.00 C246.42,522.28 253.21,495.05 255.98,483.50 C262.32,457.02 262.79,455.35 265.23,450.56 C266.33,448.39 275.44,437.59 285.47,426.56 C295.49,415.53 306.68,403.06 310.33,398.85 C320.26,387.40 320.86,387.20 353.35,384.34 C397.45,380.45 399.07,380.40 402.00,382.79 L 404.50 384.82 L 404.16 412.16 C403.84,438.09 403.93,439.79 405.95,445.17 C408.58,452.16 414.44,458.40 421.37,461.57 C426.49,463.91 460.94,470.01 468.95,469.99 C474.16,469.98 482.07,465.91 485.42,461.52 C489.24,456.51 493.63,445.89 495.44,437.29 C496.97,430.00 497.36,420.88 499.08,352.50 C500.20,307.82 500.95,300.70 505.60,290.18 C508.74,283.07 512.20,278.55 516.83,275.51 C521.41,272.50 589.97,246.80 601.22,243.88 C608.77,241.91 610.51,241.81 621.07,242.73 C627.43,243.28 633.62,244.26 634.82,244.90 C636.02,245.55 637.72,247.74 638.59,249.79 C640.02,253.13 640.07,258.88 639.09,307.50 C638.49,337.20 637.53,391.20 636.96,427.50 C636.38,463.80 635.48,514.07 634.96,539.21 C634.02,584.15 634.04,585.02 636.06,590.44 C638.49,596.93 643.94,602.11 650.79,604.45 C656.15,606.27 669.10,606.46 689.00,605.00 C696.42,604.46 710.60,603.58 720.50,603.04 C745.65,601.68 775.47,599.18 782.00,597.89 C790.33,596.24 798.26,591.53 805.33,584.03 C810.76,578.27 813.28,574.09 823.77,553.43 C830.44,540.27 838.24,526.20 841.08,522.17 C854.32,503.39 878.35,491.72 904.00,491.61 C917.11,491.55 920.45,492.61 941.50,503.52 C971.25,518.94 999.73,529.28 1023.93,533.43 C1031.73,534.77 1070.13,537.03 1109.50,538.47 C1132.60,539.31 1161.85,540.45 1174.50,541.00 C1222.47,543.09 1228.76,542.49 1237.36,534.91 C1249.44,524.28 1248.91,506.76 1236.23,497.56 C1230.55,493.43 1195.73,474.67 1184.50,469.69 C1180.10,467.73 1171.10,464.06 1164.50,461.52 C1157.90,458.98 1143.28,452.14 1132.00,446.32 C1110.73,435.35 1108.45,434.16 1060.50,408.97 C1044.55,400.60 1020.25,387.90 1006.50,380.75 C977.23,365.55 932.21,341.83 913.00,331.50 C905.58,327.50 883.53,315.80 864.00,305.49 C844.47,295.18 826.03,285.38 823.00,283.72 C806.63,274.72 787.14,265.23 768.00,256.94 C743.51,246.34 709.51,229.36 661.00,203.54 C612.55,177.75 586.70,164.38 582.69,163.06 C578.60,161.71 572.86,163.51 571.19,166.67 C570.66,167.67 569.90,175.83 569.50,184.78 C568.92,197.65 568.43,201.46 567.13,202.96 C565.77,204.55 563.13,205.05 551.00,205.99 C497.61,210.14 469.62,217.01 436.34,234.12 C409.89,247.72 398.56,256.24 364.50,288.12 C361.20,291.21 352.39,299.31 344.93,306.12 C321.41,327.58 261.90,383.31 251.95,393.19 C242.99,402.09 221.22,426.59 214.35,435.50 C208.76,442.75 198.92,457.05 175.14,492.50 C131.82,557.06 127.45,563.31 127.04,569.82 C127.00,570.55 127.00,571.28 127.01,572.10 C127.01,572.40 127.01,572.71 127.01,573.04 C126.99,584.54 132.39,598.18 140.09,606.09 C145.46,611.60 152.55,615.49 163.00,618.63 ZM 192.43 613.95 C170.17,620.82 145.13,610.54 135.92,590.74 C132.94,584.33 132.55,582.53 132.53,575.00 C132.51,565.86 133.76,562.37 140.21,553.54 C141.83,551.32 146.16,544.97 149.83,539.43 C153.50,533.89 158.79,526.01 161.58,521.93 C164.38,517.84 176.31,500.10 188.11,482.50 C218.04,437.84 223.30,430.98 246.33,406.50 C268.73,382.69 388.65,271.61 405.43,259.12 C420.26,248.09 436.05,239.11 457.61,229.46 C477.65,220.50 509.36,214.35 553.00,210.97 C560.42,210.40 567.55,209.40 568.84,208.75 C572.88,206.71 573.77,203.32 574.46,187.48 C575.30,168.02 575.31,168.00 579.09,168.00 C582.38,168.00 587.64,170.51 622.00,188.47 C634.38,194.94 651.03,203.62 659.00,207.75 C666.97,211.89 682.27,220.02 692.98,225.82 C715.98,238.26 742.84,251.37 763.00,259.98 C779.60,267.07 811.69,283.01 836.50,296.49 C845.85,301.57 858.90,308.54 865.50,311.99 C878.94,319.02 890.05,324.92 897.50,329.01 C903.43,332.26 908.60,334.99 950.00,356.70 C967.33,365.78 988.92,377.15 998.00,381.97 C1007.08,386.79 1021.92,394.58 1031.00,399.27 C1050.80,409.52 1058.61,413.60 1083.50,426.69 C1128.36,450.30 1152.46,462.24 1166.77,467.93 C1193.68,478.64 1230.03,497.97 1236.31,504.92 C1241.39,510.55 1242.77,515.71 1240.65,521.22 C1238.50,526.81 1233.09,532.60 1227.76,535.02 C1222.36,537.47 1218.33,537.50 1160.00,535.51 C1034.77,531.24 1022.40,530.18 995.50,521.37 C977.91,515.61 959.63,507.52 936.03,495.04 C923.43,488.39 915.18,486.57 900.60,487.25 C873.57,488.51 852.49,498.92 837.97,518.19 C834.44,522.88 828.09,533.93 822.40,545.30 C807.43,575.21 803.90,580.70 795.92,586.56 C787.40,592.81 776.73,594.69 734.00,597.47 L 729.45 597.77 C666.35,601.87 661.56,602.18 657.17,601.00 C656.71,600.88 656.25,600.74 655.73,600.59 C647.49,598.15 644.16,595.59 641.40,589.56 L 638.93 584.17 L 639.96 529.33 C640.53,499.18 641.45,453.80 642.01,428.50 C644.23,327.10 645.05,253.89 643.99,249.97 C642.59,244.77 638.75,240.41 634.22,238.87 C631.90,238.09 625.02,237.61 616.00,237.60 C601.77,237.60 601.32,237.66 592.00,241.20 C582.26,244.89 567.53,250.35 556.00,254.53 C535.38,262.01 517.43,269.14 513.60,271.39 C508.77,274.22 503.27,281.70 500.09,289.77 C495.87,300.47 495.17,308.55 493.99,360.00 C493.37,387.23 492.48,415.18 492.01,422.13 C490.16,449.42 481.47,465.00 468.09,465.00 C460.71,465.00 426.64,458.94 422.25,456.85 C416.94,454.32 412.50,449.02 410.41,442.73 C409.06,438.65 408.86,433.68 409.15,411.02 C409.49,385.04 409.43,384.05 407.41,381.32 C403.06,375.45 401.22,375.34 361.34,378.71 C320.39,382.17 319.58,382.37 310.82,391.17 C307.89,394.12 299.82,403.04 292.87,411.01 C285.92,418.98 276.33,429.73 271.56,434.89 C266.79,440.06 261.80,446.44 260.46,449.08 C259.12,451.72 256.43,460.54 254.47,468.69 C248.37,494.08 234.94,548.19 233.04,555.00 C232.04,558.58 229.98,566.22 228.46,572.00 C222.12,596.06 211.92,607.93 192.43,613.95 ZM 168.81 606.53 C185.62,611.16 205.47,603.00 214.38,587.80 C215.80,585.38 218.77,576.44 220.98,567.95 C229.80,534.10 234.38,516.05 242.48,483.13 C248.55,458.48 251.73,447.38 253.72,443.92 C255.25,441.27 268.32,426.02 282.78,410.05 C311.62,378.17 314.31,375.93 325.94,374.06 C333.60,372.82 374.54,369.19 390.50,368.33 C400.60,367.78 401.90,367.93 406.38,370.04 C411.59,372.50 416.17,378.35 417.97,384.84 C418.55,386.96 418.55,397.45 417.97,412.70 C416.92,440.15 417.10,441.24 423.32,446.71 C427.85,450.68 430.38,451.38 451.90,454.59 C464.96,456.54 469.87,456.93 471.61,456.13 C475.04,454.57 478.62,448.45 481.04,440.00 C483.01,433.15 483.35,427.55 485.05,375.50 C486.08,344.15 487.37,313.90 487.93,308.27 C490.28,284.44 500.15,268.05 516.29,261.15 C531.34,254.73 592.06,232.46 600.46,230.29 C605.17,229.08 609.47,228.87 620.00,229.34 C627.42,229.67 635.08,230.40 637.00,230.95 C642.30,232.48 647.56,237.40 650.69,243.77 L 653.50 249.50 L 653.38 274.00 C653.24,303.25 649.15,502.26 647.48,561.50 C647.17,572.37 647.35,581.88 647.90,583.73 C649.12,587.87 653.52,591.74 658.00,592.63 C663.61,593.74 769.69,586.95 778.96,584.89 C785.84,583.36 792.97,578.98 797.12,573.73 C799.19,571.11 805.84,559.18 811.90,547.23 C825.73,519.92 830.79,512.25 841.61,502.12 C848.34,495.83 852.46,492.95 860.37,489.03 C878.94,479.81 900.82,476.13 918.00,479.34 C925.21,480.68 930.15,482.73 950.50,492.83 C963.70,499.38 979.56,506.59 985.75,508.87 C999.56,513.94 1020.79,519.55 1031.50,520.95 C1043.76,522.55 1107.47,525.51 1185.15,528.09 L 1221.81 529.30 L 1226.39 526.62 C1231.75,523.47 1233.00,521.52 1233.00,516.26 C1233.00,510.73 1229.60,507.99 1209.50,497.28 C1184.32,483.86 1178.79,481.22 1165.02,476.01 C1150.61,470.55 1123.42,457.04 1070.00,428.80 C1063.68,425.45 1051.97,419.34 1044.00,415.20 C999.27,392.03 916.31,348.20 815.00,294.21 C793.83,282.93 780.85,276.53 772.00,273.00 C753.05,265.45 714.23,246.44 675.00,225.50 C667.58,221.53 655.20,215.01 647.50,210.99 C639.80,206.97 622.55,197.91 609.17,190.84 C595.79,183.78 584.47,178.00 584.02,178.00 C583.57,178.00 583.04,183.96 582.85,191.25 C582.52,203.63 582.32,204.81 579.71,209.25 C575.67,216.11 571.21,218.09 557.51,219.08 C535.33,220.69 510.10,223.92 495.50,227.03 C458.78,234.85 423.19,253.26 395.00,279.04 C355.46,315.19 330.71,337.94 306.98,359.96 C291.84,374.01 274.34,390.23 268.10,396.00 C248.15,414.44 226.65,439.94 210.33,464.50 C205.95,471.10 189.09,496.30 172.87,520.50 C156.65,544.70 142.78,565.98 142.05,567.79 C138.87,575.68 144.06,591.59 151.93,598.10 C156.25,601.67 162.50,604.79 168.81,606.53 ZM 194.59 598.55 C186.17,602.72 178.44,603.71 170.50,601.65 C155.71,597.82 147.00,587.87 147.00,574.78 L 147.00 568.82 L 177.18 523.66 C221.92,456.70 224.49,452.98 235.91,438.67 C251.86,418.65 266.21,404.63 341.90,335.08 C349.93,327.70 367.03,311.95 379.90,300.08 C392.77,288.21 406.04,276.29 409.40,273.58 C424.17,261.68 448.43,247.98 468.03,240.48 C489.25,232.36 522.46,226.36 557.00,224.40 C570.52,223.63 576.29,221.64 581.44,215.94 C585.77,211.15 588.00,203.79 588.00,194.32 C588.00,188.33 588.29,187.00 589.57,187.00 C590.43,187.00 595.95,189.64 601.82,192.86 C607.69,196.09 619.25,202.24 627.50,206.53 C635.75,210.82 649.70,218.13 658.50,222.78 C697.67,243.46 723.17,256.66 731.50,260.57 C744.60,266.71 754.08,271.00 754.55,271.00 C755.87,271.00 788.31,286.08 798.00,291.19 C804.33,294.53 813.78,299.51 819.00,302.26 C824.22,305.01 833.67,310.06 840.00,313.49 C858.98,323.78 897.23,344.04 975.00,384.98 C985.72,390.62 999.00,397.61 1004.50,400.51 C1010.00,403.41 1025.30,411.40 1038.50,418.27 L 1074.50 437.01 C1081.10,440.44 1093.16,446.83 1101.31,451.20 C1124.80,463.79 1150.60,476.23 1162.00,480.45 C1176.04,485.65 1215.34,505.40 1225.25,512.24 C1228.94,514.78 1228.82,518.14 1224.92,521.41 C1221.28,524.48 1220.94,524.49 1182.93,523.01 C1168.94,522.46 1139.05,521.33 1116.50,520.49 C1060.33,518.39 1032.08,516.46 1020.24,513.90 C998.80,509.26 978.75,501.55 950.36,487.03 C940.94,482.21 930.06,477.30 926.19,476.13 C901.16,468.52 864.56,476.32 842.77,493.89 C829.60,504.52 822.74,514.19 808.32,542.48 C794.26,570.07 789.35,576.75 781.50,578.91 C773.79,581.04 716.70,585.57 671.50,587.65 C658.99,588.22 658.39,588.16 655.62,585.95 L 652.74 583.65 L 653.42 546.07 C653.80,525.41 654.98,466.20 656.05,414.50 C656.24,405.62 656.41,397.22 656.57,389.29 C659.31,257.21 659.41,252.55 658.11,248.33 C657.98,247.92 657.84,247.51 657.69,247.00 C654.11,234.77 645.89,226.85 635.17,225.31 C632.05,224.87 622.75,224.51 614.50,224.51 L 599.50 224.53 L 585.00 229.69 C577.03,232.53 568.70,235.53 566.50,236.36 C564.30,237.19 559.58,238.96 556.00,240.29 C531.65,249.36 515.65,255.61 510.35,258.11 C502.29,261.91 495.14,269.74 490.04,280.35 C482.30,296.48 481.56,303.42 479.97,374.50 C478.76,428.68 478.19,434.50 472.99,445.75 C471.40,449.19 469.83,452.00 469.49,452.00 C467.89,452.00 436.05,446.89 432.72,446.10 C428.20,445.02 426.38,443.63 424.35,439.70 C423.07,437.23 422.88,432.43 423.16,409.63 C423.50,382.82 423.47,382.45 421.16,378.00 C417.88,371.69 414.30,368.13 408.50,365.38 C402.42,362.51 396.56,362.36 373.01,364.49 C363.93,365.31 348.85,366.64 339.50,367.44 C313.73,369.63 309.86,371.54 293.41,390.19 C275.61,410.37 265.72,421.37 258.46,429.07 C254.53,433.23 250.12,439.11 248.64,442.12 C246.98,445.52 240.85,468.00 232.56,501.06 C215.53,569.00 213.26,577.61 211.05,582.50 C208.00,589.27 202.47,594.66 194.59,598.55 ZM 1285.62 731.67 C1286.53,734.05 1287.55,735.99 1287.89,735.98 C1288.22,735.97 1289.57,733.49 1290.88,730.47 C1293.90,723.48 1299.48,717.90 1306.47,714.88 C1309.49,713.57 1311.97,712.18 1311.98,711.79 C1311.99,711.40 1310.31,710.60 1308.25,710.03 C1300.89,707.96 1293.59,700.74 1290.38,692.33 C1289.47,689.95 1288.42,688.00 1288.05,688.00 C1287.67,688.00 1286.35,690.46 1285.10,693.46 C1282.22,700.42 1276.42,706.22 1269.46,709.10 C1266.46,710.35 1264.00,711.70 1264.00,712.10 C1264.00,712.51 1265.31,713.13 1266.91,713.48 C1270.77,714.33 1278.46,719.87 1281.51,724.02 C1282.86,725.84 1284.71,729.29 1285.62,731.67 Z" fill="rgb(33,34,33)"/>
<path d="M 1110.45 538.50 C1112.06,538.49 1113.05,538.43 1113.25,538.31 C1113.66,538.08 1114.00,537.09 1114.00,536.13 C1114.00,534.53 1111.66,534.26 1088.25,533.13 C1073.55,532.42 1060.88,531.67 1050.24,530.86 C1072.49,532.41 1105.59,533.66 1160.00,535.51 C1218.33,537.50 1222.36,537.47 1227.76,535.02 C1233.09,532.60 1238.50,526.81 1240.65,521.22 C1242.77,515.71 1241.39,510.55 1236.31,504.92 C1230.03,497.97 1193.68,478.64 1166.77,467.93 C1152.46,462.24 1128.36,450.30 1083.50,426.69 C1058.61,413.60 1050.80,409.52 1031.00,399.27 C1021.92,394.58 1007.08,386.79 998.00,381.97 C988.92,377.15 967.33,365.78 950.00,356.70 C908.60,334.99 903.43,332.26 897.50,329.01 C890.05,324.92 878.94,319.02 865.50,311.99 C858.90,308.54 845.85,301.57 836.50,296.49 C811.69,283.01 779.60,267.07 763.00,259.98 C742.84,251.37 715.98,238.26 692.98,225.82 C682.27,220.02 666.97,211.89 659.00,207.75 C651.03,203.62 634.38,194.94 622.00,188.47 C587.64,170.51 582.38,168.00 579.09,168.00 C575.31,168.00 575.30,168.02 574.46,187.48 C573.77,203.32 572.88,206.71 568.84,208.75 C567.55,209.40 560.42,210.40 553.00,210.97 C509.36,214.35 477.65,220.50 457.61,229.46 C436.05,239.11 420.26,248.09 405.43,259.12 C388.65,271.61 268.73,382.69 246.33,406.50 C223.30,430.98 218.04,437.84 188.11,482.50 C176.31,500.10 164.38,517.84 161.58,521.93 C158.79,526.01 153.50,533.89 149.83,539.43 C146.16,544.97 141.83,551.32 140.21,553.54 C139.00,555.19 137.97,556.66 137.10,558.01 C138.13,556.37 139.37,554.57 140.86,552.50 C142.46,550.30 146.35,544.57 149.52,539.77 C154.33,532.47 155.07,530.79 154.02,529.52 C153.32,528.68 152.40,528.00 151.98,528.00 C151.64,528.00 149.76,530.52 147.20,534.21 C153.99,524.00 163.04,510.52 175.14,492.50 C198.92,457.05 208.76,442.75 214.35,435.50 C221.22,426.59 242.99,402.09 251.95,393.19 C261.90,383.31 321.41,327.58 344.93,306.12 C352.39,299.31 361.20,291.21 364.50,288.12 C398.56,256.24 409.89,247.72 436.34,234.12 C469.62,217.01 497.61,210.14 551.00,205.99 C563.13,205.05 565.77,204.55 567.13,202.96 C568.43,201.46 568.92,197.65 569.50,184.78 C569.90,175.83 570.66,167.67 571.19,166.67 C572.86,163.51 578.60,161.71 582.69,163.06 C586.70,164.38 612.55,177.75 661.00,203.54 C709.51,229.36 743.51,246.34 768.00,256.94 C787.14,265.23 806.63,274.72 823.00,283.72 C826.03,285.38 844.47,295.18 864.00,305.49 C883.53,315.80 905.58,327.50 913.00,331.50 C932.21,341.83 977.23,365.55 1006.50,380.75 C1020.25,387.90 1044.55,400.60 1060.50,408.97 C1108.45,434.16 1110.73,435.35 1132.00,446.32 C1143.28,452.14 1157.90,458.98 1164.50,461.52 C1171.10,464.06 1180.10,467.73 1184.50,469.69 C1195.73,474.67 1230.55,493.43 1236.23,497.56 C1248.91,506.76 1249.44,524.28 1237.36,534.91 C1228.76,542.49 1222.47,543.09 1174.50,541.00 C1162.02,540.46 1133.39,539.34 1110.45,538.50 ZM 1006.35 529.53 C1014.20,531.59 1021.61,533.05 1028.50,533.86 C1032.29,534.31 1038.38,534.82 1045.60,535.34 C1034.83,534.63 1027.00,533.96 1023.93,533.43 C1018.29,532.46 1012.42,531.16 1006.35,529.53 ZM 166.06 614.58 C153.01,611.49 141.73,603.22 135.92,590.74 C141.51,602.77 152.95,611.29 166.06,614.58 ZM 129.00 563.30 C127.24,567.52 126.70,572.60 127.33,578.14 C127.12,576.41 127.01,574.70 127.01,573.04 C127.01,572.71 127.01,572.40 127.01,572.10 L 127.01 572.10 C127.00,571.28 127.00,570.55 127.04,569.82 C127.16,568.03 127.57,566.26 129.00,563.30 ZM 209.56 605.32 C218.52,598.24 224.31,587.73 228.46,572.00 C224.20,588.14 218.44,598.43 209.56,605.32 ZM 163.00 618.63 C153.00,615.62 146.08,611.94 140.80,606.80 C146.22,611.93 153.46,615.76 163.00,618.63 ZM 999.28 522.58 C995.13,521.31 990.86,519.86 986.44,518.22 C989.49,519.34 992.51,520.39 995.50,521.37 C996.79,521.79 998.04,522.20 999.28,522.58 ZM 1022.99 528.11 C1020.45,527.75 1018.25,527.37 1016.38,526.99 C1016.10,526.93 1015.82,526.87 1015.54,526.82 C1017.87,527.28 1020.33,527.71 1022.99,528.11 Z" fill="rgb(24,151,189)"/>
<path d="M 163.00 618.63 C153.46,615.76 146.22,611.93 140.80,606.80 C140.56,606.56 140.32,606.33 140.09,606.09 C133.50,599.32 128.60,588.36 127.33,578.14 C126.70,572.60 127.24,567.52 129.00,563.30 C131.33,558.49 136.36,550.52 147.20,534.21 C149.76,530.52 151.64,528.00 151.98,528.00 C152.40,528.00 153.32,528.68 154.02,529.52 C155.07,530.79 154.33,532.47 149.52,539.77 C146.35,544.57 142.46,550.30 140.86,552.50 C139.37,554.57 138.13,556.37 137.10,558.01 C133.33,563.87 132.51,567.57 132.53,575.00 C132.55,582.53 132.94,584.33 135.92,590.74 C141.73,603.22 153.01,611.49 166.06,614.58 C174.53,616.70 183.69,616.65 192.43,613.95 C199.18,611.86 204.82,609.08 209.56,605.32 L 209.57 605.32 C218.44,598.42 224.20,588.14 228.46,572.00 L 228.46 572.00 C229.98,566.22 232.04,558.58 233.04,555.00 C234.94,548.19 248.37,494.08 254.47,468.69 C256.43,460.54 259.12,451.72 260.46,449.08 C261.80,446.44 266.79,440.06 271.56,434.89 C276.33,429.73 285.92,418.98 292.87,411.01 C299.82,403.04 307.89,394.12 310.82,391.17 C319.58,382.37 320.39,382.17 361.34,378.71 C401.22,375.34 403.06,375.45 407.41,381.32 C409.43,384.05 409.49,385.04 409.15,411.02 C408.86,433.68 409.06,438.65 410.41,442.73 C412.50,449.02 416.94,454.32 422.25,456.85 C426.64,458.94 460.71,465.00 468.09,465.00 C481.47,465.00 490.16,449.42 492.01,422.13 C492.48,415.18 493.37,387.23 493.99,360.00 C495.17,308.55 495.87,300.47 500.09,289.77 C503.27,281.70 508.77,274.22 513.60,271.39 C517.43,269.14 535.38,262.01 556.00,254.53 C567.53,250.35 582.26,244.89 592.00,241.20 C601.32,237.66 601.77,237.60 616.00,237.60 C625.02,237.61 631.90,238.09 634.22,238.87 C638.75,240.41 642.59,244.77 643.99,249.97 C645.05,253.89 644.23,327.10 642.01,428.50 C641.83,436.37 641.62,446.17 641.40,456.86 C641.64,445.15 641.86,434.13 642.05,425.00 C643.45,357.97 643.11,326.50 641.00,326.50 C639.23,326.50 638.86,336.30 637.08,430.50 C636.61,455.19 635.96,488.43 635.44,514.47 C635.94,488.25 636.54,454.12 636.96,427.50 C637.53,391.20 638.49,337.20 639.09,307.50 C640.07,258.88 640.02,253.13 638.59,249.79 C637.72,247.74 636.02,245.55 634.82,244.90 C633.62,244.26 627.43,243.28 621.07,242.73 C610.51,241.81 608.77,241.91 601.22,243.88 C589.97,246.80 521.41,272.50 516.83,275.51 C512.20,278.55 508.74,283.07 505.60,290.18 C500.95,300.70 500.20,307.82 499.08,352.50 C497.36,420.88 496.97,430.00 495.44,437.29 C493.63,445.89 489.24,456.51 485.42,461.52 C482.07,465.91 474.16,469.98 468.95,469.99 C460.94,470.01 426.49,463.91 421.37,461.57 C414.44,458.40 408.58,452.16 405.95,445.17 C403.93,439.79 403.84,438.09 404.16,412.16 L 404.50 384.82 L 402.00 382.79 C399.07,380.40 397.45,380.45 353.35,384.34 C320.86,387.20 320.26,387.40 310.33,398.85 C306.68,403.06 295.49,415.53 285.47,426.56 C275.44,437.59 266.33,448.39 265.23,450.56 C262.79,455.35 262.32,457.02 255.98,483.50 C253.21,495.05 246.42,522.28 240.90,544.00 C229.08,590.44 226.80,596.22 216.45,605.90 C202.03,619.39 181.63,624.25 163.00,618.63 ZM 1285.62 731.67 C1284.71,729.29 1282.86,725.84 1281.51,724.02 C1278.46,719.87 1270.77,714.33 1266.91,713.48 C1265.31,713.13 1264.00,712.51 1264.00,712.10 C1264.00,711.70 1266.46,710.35 1269.46,709.10 C1276.42,706.22 1282.22,700.42 1285.10,693.46 C1286.35,690.46 1287.67,688.00 1288.05,688.00 C1288.42,688.00 1289.47,689.95 1290.38,692.33 C1293.59,700.74 1300.89,707.96 1308.25,710.03 C1310.31,710.60 1311.99,711.40 1311.98,711.79 C1311.97,712.18 1309.49,713.57 1306.47,714.88 C1299.48,717.90 1293.90,723.48 1290.88,730.47 C1289.57,733.49 1288.22,735.97 1287.89,735.98 C1287.55,735.99 1286.53,734.05 1285.62,731.67 ZM 653.24 605.07 C659.85,606.18 672.93,606.18 689.00,605.00 C671.66,606.27 659.60,606.29 653.24,605.07 ZM 639.25 566.95 L 638.93 584.17 L 638.93 584.16 Z" fill="rgb(188,177,125)"/>
<path d="M 165.50 633.58 C157.03,631.63 146.37,627.44 140.83,623.89 C133.96,619.48 123.76,608.21 120.20,601.09 C113.34,587.36 112.03,568.11 117.19,556.88 C119.46,551.94 134.83,528.67 184.14,455.50 C209.29,418.19 227.60,397.38 269.99,357.97 C277.95,350.56 291.68,337.75 300.49,329.50 C353.95,279.43 384.18,251.87 392.75,245.38 C415.19,228.38 445.87,212.71 470.50,205.69 C488.75,200.48 505.02,197.59 533.50,194.52 C541.20,193.69 549.34,192.76 551.60,192.46 L 555.70 191.92 L 556.30 180.00 C556.99,166.29 558.18,161.45 562.02,156.80 C569.56,147.64 581.42,146.58 596.00,153.77 C600.67,156.07 613.72,162.83 625.00,168.79 C732.19,225.45 747.43,233.12 782.41,248.01 C790.16,251.31 805.50,258.78 816.50,264.62 C827.50,270.45 848.88,281.76 864.00,289.75 C879.12,297.73 898.03,307.73 906.00,311.97 C953.67,337.26 991.52,357.26 1013.00,368.48 C1026.47,375.52 1045.38,385.44 1055.00,390.53 C1064.62,395.62 1082.62,405.08 1095.00,411.56 C1107.38,418.03 1123.80,426.64 1131.50,430.69 C1145.98,438.30 1163.78,447.00 1164.88,447.00 C1167.55,447.00 1198.76,461.29 1217.92,471.28 C1243.78,484.78 1250.55,489.99 1256.51,501.00 C1259.24,506.05 1259.49,507.31 1259.49,516.50 C1259.50,525.58 1259.24,527.00 1256.63,531.95 C1249.37,545.75 1235.63,554.95 1221.03,555.79 C1209.44,556.46 1045.16,549.67 1031.00,547.94 C999.94,544.14 976.88,536.35 934.56,515.38 L 914.62 505.50 L 904.06 505.63 C881.82,505.90 863.93,514.10 853.10,529.00 C848.17,535.78 844.45,542.59 833.56,564.76 C825.09,582.01 821.70,587.19 813.37,595.58 C799.52,609.54 790.85,612.04 746.00,615.00 C737.47,615.56 716.33,616.96 699.00,618.10 C663.07,620.46 653.17,620.25 644.63,616.92 C636.51,613.75 628.85,606.52 624.76,598.15 L 621.50 591.50 L 621.53 546.50 C621.56,507.02 623.55,390.56 625.91,290.50 C626.33,272.35 626.52,257.30 626.32,257.06 C626.11,256.81 621.90,256.42 616.95,256.18 C609.42,255.82 606.92,256.12 601.72,257.99 C594.20,260.70 553.02,275.84 540.50,280.51 C522.48,287.23 521.71,287.82 518.11,297.44 C514.92,305.95 514.16,315.94 513.05,363.50 C511.55,428.08 511.38,431.01 508.51,442.47 C501.78,469.35 487.70,483.95 468.50,483.99 C463.37,484.00 438.87,480.17 426.65,477.45 C407.45,473.18 393.80,458.63 391.05,439.50 C390.46,435.39 390.31,424.70 390.69,413.60 L 391.33 394.70 L 386.41 395.35 C383.71,395.70 370.16,396.90 356.31,398.00 C342.45,399.10 330.04,400.42 328.72,400.92 C327.41,401.42 315.57,413.90 302.42,428.66 C289.27,443.42 278.03,456.01 277.44,456.64 C276.85,457.26 275.34,462.44 274.08,468.14 C272.82,473.84 267.28,496.50 261.78,518.50 C256.27,540.50 250.46,563.90 248.86,570.50 C243.31,593.35 238.41,603.37 227.43,614.40 C218.98,622.87 212.05,627.18 200.26,631.27 C189.79,634.91 175.40,635.86 165.50,633.58 ZM 196.83 627.13 C215.52,621.31 231.85,605.58 238.55,586.95 C239.98,582.95 243.69,568.75 257.43,514.50 C259.80,505.15 263.42,490.30 265.46,481.50 C267.51,472.70 269.86,463.05 270.67,460.06 C272.29,454.18 272.25,454.22 292.53,431.87 C299.70,423.97 308.85,413.67 312.86,409.00 C323.20,396.94 325.77,395.43 337.20,394.57 C342.32,394.18 355.95,393.00 367.50,391.94 C379.05,390.88 390.20,390.01 392.27,390.01 L 396.05 390.00 L 395.95 414.75 C395.83,441.47 396.44,445.78 401.57,454.65 C404.50,459.73 411.18,465.74 417.27,468.78 C425.07,472.68 456.81,478.58 469.00,478.41 C481.75,478.22 491.31,471.02 498.13,456.47 C504.12,443.69 505.75,434.25 506.44,408.50 C509.13,307.78 509.21,306.36 512.70,296.05 C514.77,289.96 519.47,283.58 523.34,281.62 C527.15,279.70 587.08,257.39 598.82,253.53 C606.33,251.06 608.25,250.82 618.53,251.15 C625.50,251.37 630.37,251.97 631.10,252.70 C632.01,253.61 632.01,265.02 631.13,302.19 C628.39,416.82 625.66,570.21 626.16,580.63 C626.54,588.37 627.10,590.75 629.83,596.32 C633.59,603.94 637.01,607.14 646.00,611.41 C652.46,614.48 652.59,614.50 668.00,614.33 C683.98,614.15 754.04,609.82 771.17,607.96 C788.86,606.03 798.69,602.10 808.37,593.07 C815.53,586.40 821.44,576.89 834.64,550.77 C845.79,528.70 846.79,527.11 853.95,519.95 C866.58,507.32 880.29,501.48 900.02,500.33 C913.75,499.54 917.47,500.65 940.46,512.40 C967.24,526.10 985.50,533.20 1007.50,538.48 C1028.94,543.64 1030.71,543.78 1110.50,547.02 C1213.97,551.21 1220.94,551.36 1227.19,549.55 C1242.91,544.98 1255.00,530.56 1255.00,516.40 C1255.00,506.85 1248.72,496.02 1239.00,488.81 C1231.36,483.14 1187.11,460.92 1172.71,455.52 C1156.96,449.62 1148.33,445.50 1113.50,427.26 C1101.40,420.92 1077.32,408.32 1060.00,399.25 C1015.30,375.85 1001.12,368.38 909.00,319.74 C894.42,312.04 876.42,302.50 869.00,298.52 C823.20,274.01 797.15,260.47 787.50,256.15 C781.45,253.44 768.62,247.75 759.00,243.51 C737.02,233.83 700.76,215.22 616.01,170.13 C587.42,154.92 582.30,153.05 574.82,155.03 C569.55,156.43 566.33,159.22 563.89,164.50 C562.38,167.78 562.04,171.04 562.02,182.64 C562.00,198.84 562.52,198.00 552.43,198.00 C545.66,198.00 512.66,201.97 497.50,204.60 C473.38,208.80 451.21,216.73 427.50,229.63 C400.68,244.23 392.22,251.04 338.99,300.91 C331.01,308.38 309.43,328.45 291.03,345.50 C248.99,384.46 238.45,394.92 222.99,413.00 C204.91,434.15 198.39,443.37 142.46,526.84 C120.09,560.22 119.49,561.46 119.53,574.50 C119.56,586.43 122.00,594.77 128.16,604.00 C141.84,624.49 172.32,634.76 196.83,627.13 ZM 168.81 606.53 C162.50,604.79 156.25,601.67 151.93,598.10 C144.06,591.59 138.87,575.68 142.05,567.79 C142.78,565.98 156.65,544.70 172.87,520.50 C189.09,496.30 205.95,471.10 210.33,464.50 C226.65,439.94 248.15,414.44 268.10,396.00 C274.34,390.23 291.84,374.01 306.98,359.96 C330.71,337.94 355.46,315.19 395.00,279.04 C423.19,253.26 458.78,234.85 495.50,227.03 C510.10,223.92 535.33,220.69 557.51,219.08 C571.21,218.09 575.67,216.11 579.71,209.25 C582.32,204.81 582.52,203.63 582.85,191.25 C583.04,183.96 583.57,178.00 584.02,178.00 C584.47,178.00 595.79,183.78 609.17,190.84 C622.55,197.91 639.80,206.97 647.50,210.99 C655.20,215.01 667.58,221.53 675.00,225.50 C714.23,246.44 753.05,265.45 772.00,273.00 C780.85,276.53 793.83,282.93 815.00,294.21 C916.31,348.20 999.27,392.03 1044.00,415.20 C1051.97,419.34 1063.68,425.45 1070.00,428.80 C1123.42,457.04 1150.61,470.55 1165.02,476.01 C1178.79,481.22 1184.32,483.86 1209.50,497.28 C1229.60,507.99 1233.00,510.73 1233.00,516.26 C1233.00,521.52 1231.75,523.47 1226.39,526.62 L 1221.81 529.30 L 1185.15 528.09 C1107.47,525.51 1043.76,522.55 1031.50,520.95 C1020.79,519.55 999.56,513.94 985.75,508.87 C979.56,506.59 963.70,499.38 950.50,492.83 C930.15,482.73 925.21,480.68 918.00,479.34 C900.82,476.13 878.94,479.81 860.37,489.03 C852.46,492.95 848.34,495.83 841.61,502.12 C830.79,512.25 825.73,519.92 811.90,547.23 C805.84,559.18 799.19,571.11 797.12,573.73 C792.97,578.98 785.84,583.36 778.96,584.89 C769.69,586.95 663.61,593.74 658.00,592.63 C653.52,591.74 649.12,587.87 647.90,583.73 C647.35,581.88 647.17,572.37 647.48,561.50 C649.15,502.26 653.24,303.25 653.38,274.00 L 653.50 249.50 L 650.69 243.77 C647.56,237.40 642.30,232.48 637.00,230.95 C635.08,230.40 627.42,229.67 620.00,229.34 C609.47,228.87 605.17,229.08 600.46,230.29 C592.06,232.46 531.34,254.73 516.29,261.15 C500.15,268.05 490.28,284.44 487.93,308.27 C487.37,313.90 486.08,344.15 485.05,375.50 C483.35,427.55 483.01,433.15 481.04,440.00 C478.62,448.45 475.04,454.57 471.61,456.13 C469.87,456.93 464.96,456.54 451.90,454.59 C430.38,451.38 427.85,450.68 423.32,446.71 C417.10,441.24 416.92,440.15 417.97,412.70 C418.55,397.45 418.55,386.96 417.97,384.84 C416.17,378.35 411.59,372.50 406.38,370.04 C401.90,367.93 400.60,367.78 390.50,368.33 C374.54,369.19 333.60,372.82 325.94,374.06 C314.31,375.93 311.62,378.17 282.78,410.05 C268.32,426.02 255.25,441.27 253.72,443.92 C251.73,447.38 248.55,458.48 242.48,483.13 C234.38,516.05 229.80,534.10 220.98,567.95 C218.77,576.44 215.80,585.38 214.38,587.80 C205.47,603.00 185.62,611.16 168.81,606.53 ZM 194.59 598.55 C202.47,594.66 208.00,589.27 211.05,582.50 C213.26,577.61 215.53,569.00 232.56,501.06 C240.85,468.00 246.98,445.52 248.64,442.12 C250.12,439.11 254.53,433.23 258.46,429.07 C265.72,421.37 275.61,410.37 293.41,390.19 C309.86,371.54 313.73,369.63 339.50,367.44 C348.85,366.64 363.93,365.31 373.01,364.49 C396.56,362.36 402.42,362.51 408.50,365.38 C414.30,368.13 417.88,371.69 421.16,378.00 C423.47,382.45 423.50,382.82 423.16,409.63 C422.88,432.43 423.07,437.23 424.35,439.70 C426.38,443.63 428.20,445.02 432.72,446.10 C436.05,446.89 467.89,452.00 469.49,452.00 C469.83,452.00 471.40,449.19 472.99,445.75 C478.19,434.50 478.76,428.68 479.97,374.50 C481.56,303.42 482.30,296.48 490.04,280.35 C495.14,269.74 502.29,261.91 510.35,258.11 C515.65,255.61 531.65,249.36 556.00,240.29 C559.58,238.96 564.30,237.19 566.50,236.36 C568.70,235.53 577.03,232.53 585.00,229.69 L 599.50 224.53 L 614.50 224.51 C622.75,224.51 632.05,224.87 635.17,225.31 C645.89,226.85 654.11,234.77 657.69,247.00 C659.49,253.16 659.59,243.48 656.05,414.50 C654.98,466.20 653.80,525.41 653.42,546.07 L 652.74 583.65 L 655.62 585.95 C658.39,588.16 658.99,588.22 671.50,587.65 C716.70,585.57 773.79,581.04 781.50,578.91 C789.35,576.75 794.26,570.07 808.32,542.48 C822.74,514.19 829.60,504.52 842.77,493.89 C864.56,476.32 901.16,468.52 926.19,476.13 C930.06,477.30 940.94,482.21 950.36,487.03 C978.75,501.55 998.80,509.26 1020.24,513.90 C1032.08,516.46 1060.33,518.39 1116.50,520.49 C1139.05,521.33 1168.94,522.46 1182.93,523.01 C1220.94,524.49 1221.28,524.48 1224.92,521.41 C1228.82,518.14 1228.94,514.78 1225.25,512.24 C1215.34,505.40 1176.04,485.65 1162.00,480.45 C1150.60,476.23 1124.80,463.79 1101.31,451.20 C1093.16,446.83 1081.10,440.44 1074.50,437.01 C1067.90,433.57 1051.70,425.14 1038.50,418.27 C1025.30,411.40 1010.00,403.41 1004.50,400.51 C999.00,397.61 985.72,390.62 975.00,384.98 C897.23,344.04 858.98,323.78 840.00,313.49 C833.67,310.06 824.22,305.01 819.00,302.26 C813.78,299.51 804.33,294.53 798.00,291.19 C788.31,286.08 755.87,271.00 754.55,271.00 C754.08,271.00 744.60,266.71 731.50,260.57 C723.17,256.66 697.67,243.46 658.50,222.78 C649.70,218.13 635.75,210.82 627.50,206.53 C619.25,202.24 607.69,196.09 601.82,192.86 C595.95,189.64 590.43,187.00 589.57,187.00 C588.29,187.00 588.00,188.33 588.00,194.32 C588.00,203.79 585.77,211.15 581.44,215.94 C576.29,221.64 570.52,223.63 557.00,224.40 C522.46,226.36 489.25,232.36 468.03,240.48 C448.43,247.98 424.17,261.68 409.40,273.58 C406.04,276.29 392.77,288.21 379.90,300.08 C367.03,311.95 349.93,327.70 341.90,335.08 C266.21,404.63 251.86,418.65 235.91,438.67 C224.49,452.98 221.92,456.70 177.18,523.66 L 147.00 568.82 L 147.00 574.78 C147.00,587.87 155.71,597.82 170.50,601.65 C178.44,603.71 186.17,602.72 194.59,598.55 ZM 650.39 604.38 C643.90,602.08 638.43,596.76 636.07,590.45 C634.04,585.03 634.02,584.17 634.98,537.72 C635.51,511.75 636.46,463.50 637.08,430.50 C638.86,336.30 639.23,326.50 641.00,326.50 C643.11,326.50 643.45,357.97 642.05,425.00 C641.45,453.88 640.50,501.50 639.94,530.83 L 638.93 584.16 L 641.40 589.55 C644.16,595.59 647.49,598.15 655.73,600.59 C661.32,602.24 659.61,602.30 734.00,597.47 C776.73,594.69 787.40,592.81 795.92,586.56 C803.90,580.70 807.43,575.21 822.40,545.30 C828.09,533.93 834.44,522.88 837.97,518.19 C852.49,498.92 873.57,488.51 900.60,487.25 C915.18,486.57 923.43,488.39 936.03,495.04 C968.76,512.34 994.21,522.46 1016.38,526.99 C1027.82,529.33 1051.78,531.37 1088.25,533.13 C1111.66,534.26 1114.00,534.53 1114.00,536.13 C1114.00,537.09 1113.66,538.08 1113.25,538.31 C1111.45,539.35 1045.84,535.90 1028.50,533.86 C1004.51,531.03 974.13,520.43 941.50,503.52 C920.45,492.61 917.11,491.55 904.00,491.61 C878.35,491.72 854.32,503.39 841.08,522.17 C838.24,526.20 830.44,540.27 823.77,553.43 C813.28,574.09 810.76,578.27 805.33,584.03 C798.26,591.53 790.33,596.24 782.00,597.89 C775.47,599.18 745.65,601.68 720.50,603.04 C710.60,603.58 696.42,604.46 689.00,605.00 C670.12,606.39 655.36,606.15 650.39,604.38 Z" fill="rgb(245,244,245)"/>
</g>
</svg>